<svg xmlns="http://www.w3.org/2000/svg" xmlns:xlink="http://www.w3.org/1999/xlink" xmlns:lucid="lucid" width="450" height="280"><g transform="translate(-400 -460)" lucid:page-tab-id="0_0"><path d="M460 580h320v40H460z" stroke="#000" stroke-opacity="0" stroke-width="5" fill="#fff" fill-opacity="0"/><use xlink:href="#a" transform="matrix(1,0,0,1,465,585) translate(10.529513888888886 28.4375)"/><use xlink:href="#b" transform="matrix(1,0,0,1,465,585) translate(220.61631944444446 28.4375)"/><path d="M420 480h180v40H420z" stroke="#000" stroke-opacity="0" stroke-width="2" fill="#fff" fill-opacity="0"/><use xlink:href="#c" transform="matrix(1,0,0,1,425,485) translate(47.121853298611114 21.9287109375)"/><path d="M526.5 535.1l40.75 43.8" stroke="#fff" stroke-width="3" fill="none"/><path d="M515.77 523.55l13.1 7.3-6.78 6.3z" stroke="#fff" stroke-width="3" fill="#fff"/><path d="M570.32 580h-4.1l-.1-.1 2.2-2.05z" fill="#fff"/><path d="M630 480h200v40H630z" stroke="#000" stroke-opacity="0" stroke-width="2" fill="#fff" fill-opacity="0"/><use xlink:href="#d" transform="matrix(1,0,0,1,635,485) translate(13.096788194444429 21.9287109375)"/><path d="M714.88 534.02l-48.5 44.96" stroke="#fff" stroke-width="3" fill="none"/><path d="M726.44 523.3l-7.3 13.1-6.3-6.8z" stroke="#fff" stroke-width="3" fill="#fff"/><path d="M667.38 580h-4.3l2.3-2.15z" fill="#fff"/><path d="M440 680h180v40H440z" stroke="#000" stroke-opacity="0" stroke-width="2" fill="#fff" fill-opacity="0"/><use xlink:href="#e" transform="matrix(1,0,0,1,445,685) translate(12.227647569444429 21.9287109375)"/><path d="M640 680h180v40H640z" stroke="#000" stroke-opacity="0" stroke-width="2" fill="#fff" fill-opacity="0"/><use xlink:href="#f" transform="matrix(1,0,0,1,645,685) translate(23.166775173611114 21.9287109375)"/><path d="M525.35 664.88l40.56-43.78" stroke="#fff" stroke-width="3" fill="none"/><path d="M514.63 676.44l6.3-13.6 6.8 6.3z" stroke="#fff" stroke-width="3" fill="#fff"/><path d="M567 622.15l-2.2-2.04.1-.1h4.08z" fill="#fff"/><path d="M715.42 665.42l-44.36-44.36" stroke="#fff" stroke-width="3" fill="none"/><path d="M726.57 676.57l-13.37-6.8 6.56-6.57z" stroke="#fff" stroke-width="3" fill="#fff"/><path d="M672.15 620.03l-2.12 2.12-2.15-2.15h4.24z" fill="#fff"/><defs><path fill="#fff" d="M1017-99c0 117-177 184-240 85-7-10-21-44-40-102-47-139-165-230-355-275-17 58-33 286-63 353-23 48-62 72-119 72-83 1-144-77-132-167 69-523 136-780 365-1113 71-103 157-153 250-153 205 0 307 218 307 655 0 40-2 128-2 179 0 88 29 378 29 466zM720-874c-15-116-11-178-41-247 1-3 2-4 2-5-18 0-58 59-123 177-49 90-89 188-118 294 103 23 196 61 280 114v-333" id="g"/><path fill="#fff" d="M1027-1181c47 95-23 200-117 198-38 0-80-25-127-73s-95-72-146-72c-111 0-166 22-166 65 0 35 47 98 142 189 134 129 223 219 266 273 95 120 142 234 142 340 0 185-172 295-366 295-132 0-457-62-515-118-38-36-61-71-61-114 1-90 86-162 184-123v-2c99 32 269 87 416 87 47 0 70-13 70-40 0-61-47-138-141-231-87-85-178-166-262-254-98-103-141-208-141-302 0-275 397-420 657-285 78 40 130 96 165 167" id="h"/><path fill="#fff" d="M319-1399c71-1 136 62 135 133-6 352-80 772-80 1073 0 151-47 227-142 227-71 0-135-64-135-135 0-303 43-663 55-981 5-140 38-315 167-317" id="i"/><path fill="#fff" d="M983-312c0 178-228 350-408 346-200-4-366-168-428-328-33-85-53-181-53-290 0-301 86-535 261-698 132-124 284-158 442-62 59 36 99 83 133 134 58 89-20 205-114 203-34 0-69-21-104-61s-63-60-84-60c-169 0-264 343-264 534 0 169 66 358 215 358 60 0 103-27 129-81-25-38-67-46-126-41-67 6-130-70-130-135 0-89 78-135 171-135 179 0 360 139 360 316" id="j"/><path fill="#fff" d="M838-1263c0-72 57-136 130-136 74 0 123 53 152 157 10 35 75 644 68 614 1 225-72 438-183 556C937 1 862 39 775 39 606 39 480-92 399-353c-2 47-3 95-3 143 0 163-49 244-147 244-72 0-133-58-133-131 0-319 85-1036 189-1212 34-59 74-90 125-90 73 0 118 44 138 131 5 24 9 95 9 213 0 174 22 328 41 463 34 243 85 365 152 365 104 0 148-270 148-404 0-120-80-513-80-632" id="k"/><path fill="#fff" d="M1444-102c2 70-58 136-130 136-57 0-97-24-121-73-13-25-24-73-34-144-9-66-43-224-101-474-50 195-86 355-109 480-12 65-27 111-39 138-40 91-172 96-226 19-16-23-32-62-47-115-51-176-99-361-142-556-49 206-83 375-104 508C371-53 348 26 232 34c-71 5-130-67-130-136 0-80 146-723 174-830 19-71 45-179 86-322 28-97 80-145 153-145 109 0 132 89 151 213 25 156 62 339 112 548 62-271 86-328 162-582 32-106 51-179 154-179 60 0 106 28 123 88 35 122 26 248 65 417 43 186 158 656 162 792" id="l"/><path fill="#fff" d="M1041-1258c0 71-62 139-133 135-131-8-241-10-369 15-9 54-24 125-47 212 110-42 193-63 250-63 72 0 135 57 135 130 0 53-24 98-77 122-117 52-204 65-390 132-27 109-40 205-40 288 3-8-20 57-3 53 61 0 143-30 245-90s175-91 216-91c69 0 135 64 135 133 0 40-24 75-64 113C825-99 517 34 382 34 195 34 97-102 99-294c0-120 26-273 77-460 63-233 100-384 111-454 15-105 15-98 94-139 73-38 219-52 433-52 151 0 227 47 227 141" id="m"/><path fill="#fff" d="M413-1372c75 0 388-45 490-45 121 0 182 47 182 140 0 88-60 132-179 132-66 0-132 2-198 7v471c-9 206-13 363-13 472 0 153-48 229-144 229-72 0-133-58-133-131v-272c20-296 24-483 22-745-116 11-202 17-257 17-74 0-130-57-130-130 0-75 45-123 136-142 12-2 87-3 224-3" id="n"/><g id="a"><use transform="matrix(0.017361111111111112,0,0,0.017361111111111112,0,0)" xlink:href="#g"/><use transform="matrix(0.017361111111111112,0,0,0.017361111111111112,19.54861111111111,0)" xlink:href="#h"/><use transform="matrix(0.017361111111111112,0,0,0.017361111111111112,39.58333333333333,0)" xlink:href="#h"/><use transform="matrix(0.017361111111111112,0,0,0.017361111111111112,59.61805555555555,0)" xlink:href="#i"/><use transform="matrix(0.017361111111111112,0,0,0.017361111111111112,69.04513888888889,0)" xlink:href="#j"/><use transform="matrix(0.017361111111111112,0,0,0.017361111111111112,87.88194444444444,0)" xlink:href="#k"/><use transform="matrix(0.017361111111111112,0,0,0.017361111111111112,110.60763888888887,0)" xlink:href="#l"/><use transform="matrix(0.017361111111111112,0,0,0.017361111111111112,137.53472222222223,0)" xlink:href="#m"/><use transform="matrix(0.017361111111111112,0,0,0.017361111111111112,157.06597222222223,0)" xlink:href="#k"/><use transform="matrix(0.017361111111111112,0,0,0.017361111111111112,179.79166666666669,0)" xlink:href="#n"/></g><path fill="#fff" d="M957-1399c71 0 135 62 135 133 0 177-54 737-85 1111C997-29 948 34 864 34c-70 0-135-66-135-136 0-65 13-216 39-453-95 11-212 34-353 69-8 99-12 202-12 310 0 141-63 210-150 210-71 0-138-64-137-135 6-372 56-766 56-1090 0-139 47-208 142-208 72 0 133 58 133 131v500c135-34 250-55 347-63 7-63 10-156 10-280 0-92 16-153 25-183 20-70 63-105 128-105" id="o"/><path fill="#fff" d="M848-500c70 0 138 66 138 136 0 35-20 71-58 110C829-151 540 34 372 34 206 34 123-86 123-326c0-166 46-511 46-695 0-128 9-205 14-232 19-97 66-146 140-146 70 0 137 63 134 133-3 3-27 473-39 640-18 243-32 295-24 384 1 4 0 6-5 6 47 0 162-70 347-211 47-35 84-53 112-53" id="p"/><path fill="#fff" d="M515-1399c293 0 584 130 584 394 0 148-82 278-246 392-126 88-272 152-438 190-1 7-8 99-21 278-8 119-54 179-138 179-71 0-133-64-133-135 0-199 53-856 49-1027-37-29-56-68-56-116 0-72 53-119 159-140 47-10 127-15 240-15zm314 389c0-83-151-122-385-118-1 119-2 260-2 421 258-81 387-182 387-303" id="q"/><g id="b"><use transform="matrix(0.017361111111111112,0,0,0.017361111111111112,0,0)" xlink:href="#o"/><use transform="matrix(0.017361111111111112,0,0,0.017361111111111112,20.95486111111111,0)" xlink:href="#m"/><use transform="matrix(0.017361111111111112,0,0,0.017361111111111112,40.486111111111114,0)" xlink:href="#p"/><use transform="matrix(0.017361111111111112,0,0,0.017361111111111112,57.8125,0)" xlink:href="#q"/></g><path fill="#fff" d="M411-1372c76 0 388-45 490-45 122 0 183 47 183 140 0 88-60 132-179 132-66 0-132 2-198 7v471c-9 206-14 363-14 472 0 153-48 229-143 229-73 0-134-58-134-131v-272c21-296 25-483 23-745-116 11-202 17-258 17-73 0-130-57-130-130 0-75 46-123 137-142 11-2 86-3 223-3" id="r"/><path fill="#fff" d="M969-1399c71 0 135 62 135 133 0 177-54 737-85 1111-10 126-59 189-143 189-70 0-135-66-135-136 0-64 13-215 39-453-95 11-212 34-353 69-8 99-12 202-12 310 0 141-63 210-150 210-71 0-138-64-137-135 6-372 56-766 56-1090 0-139 47-208 142-208 72 0 133 58 133 131v500c134-34 250-55 347-63 7-63 10-156 10-280 0-92 16-153 25-183 20-70 63-105 128-105" id="s"/><g id="c"><use transform="matrix(0.01193576388888889,0,0,0.01193576388888889,0,0)" xlink:href="#r"/><use transform="matrix(0.01193576388888889,0,0,0.01193576388888889,13.606770833333334,0)" xlink:href="#s"/><use transform="matrix(0.01193576388888889,0,0,0.01193576388888889,28.299696180555557,0)" xlink:href="#m"/><use transform="matrix(0.01193576388888889,0,0,0.01193576388888889,41.72743055555556,0)" xlink:href="#h"/><use transform="matrix(0.01193576388888889,0,0,0.01193576388888889,55.501302083333336,0)" xlink:href="#i"/><use transform="matrix(0.01193576388888889,0,0,0.01193576388888889,61.98242187500001,0)" xlink:href="#h"/></g><path fill="#fff" d="M509-1399c292 0 583 130 583 394 0 148-82 279-245 392-127 89-273 152-439 190-1 7-8 99-21 278-8 119-54 179-138 179-70 0-133-65-133-135 0-200 53-857 50-1027-38-29-57-68-57-116 0-72 53-119 159-140 47-10 127-15 241-15zm-46 271h-26c-1 119-2 260-2 421 259-81 388-182 388-303 0-79-120-118-360-118" id="t"/><path fill="#fff" d="M473-1399c362 0 657 246 657 602 0 214-118 372-355 474 118 87 177 161 177 222 0 73-69 131-138 130-25 0-55-11-87-36-53-42-135-102-249-177 7 137-37 218-138 218-71 0-133-59-133-131v-376c15-135 23-338 23-607h12c-69 3-133-64-133-133 0-124 219-186 364-186zm44 271c-2 102-3 307-3 614 231-71 346-167 346-288 0-146-208-306-343-326" id="u"/><path fill="#fff" d="M1027-99c0 117-177 184-240 85-7-10-20-44-39-102-47-139-165-230-355-275-18 57-34 286-64 353-23 48-62 72-119 72-82 1-143-78-131-167 70-523 136-780 365-1113 71-103 156-153 249-153 205 0 307 218 307 655 0 40-2 128-2 179 0 88 29 378 29 466zM730-874c-14-116-12-178-41-247 1-3 2-4 2-5-18 0-58 59-123 177-49 90-89 188-117 294 102 23 195 61 279 114v-333" id="v"/><path fill="#fff" d="M650-1398c340 0 553 245 553 591 0 189-52 369-157 541C924-66 770 34 585 34c-292 0-481-299-481-604 0-195 39-370 116-527 100-201 243-301 430-301zM580-237c192 0 355-367 355-577 0-208-105-312-315-312-74 0-135 77-188 228-78 222-100 522 66 632 30 19 57 29 82 29" id="w"/><g id="d"><use transform="matrix(0.01193576388888889,0,0,0.01193576388888889,0,0)" xlink:href="#t"/><use transform="matrix(0.01193576388888889,0,0,0.01193576388888889,14.29904513888889,0)" xlink:href="#u"/><use transform="matrix(0.01193576388888889,0,0,0.01193576388888889,28.848741319444446,0)" xlink:href="#m"/><use transform="matrix(0.01193576388888889,0,0,0.01193576388888889,42.27647569444445,0)" xlink:href="#h"/><use transform="matrix(0.01193576388888889,0,0,0.01193576388888889,56.05034722222223,0)" xlink:href="#m"/><use transform="matrix(0.01193576388888889,0,0,0.01193576388888889,69.47808159722223,0)" xlink:href="#k"/><use transform="matrix(0.01193576388888889,0,0,0.01193576388888889,85.10199652777779,0)" xlink:href="#n"/><use transform="matrix(0.01193576388888889,0,0,0.01193576388888889,98.74457465277779,0)" xlink:href="#v"/><use transform="matrix(0.01193576388888889,0,0,0.01193576388888889,112.51844618055557,0)" xlink:href="#n"/><use transform="matrix(0.01193576388888889,0,0,0.01193576388888889,126.16102430555557,0)" xlink:href="#i"/><use transform="matrix(0.01193576388888889,0,0,0.01193576388888889,132.64214409722223,0)" xlink:href="#w"/><use transform="matrix(0.01193576388888889,0,0,0.01193576388888889,148.18250868055557,0)" xlink:href="#k"/></g><path fill="#fff" d="M804-396c70 0 136 65 136 135 0 36-21 72-58 113C813-72 588 34 449 34 222 34 77-184 80-422c3-227 75-497 156-655 110-214 238-322 389-322 190 0 285 140 285 419 0 146-47 219-140 219-66 0-133-60-133-128 0-66 13-154 10-224-1-14-8-20-16-20-68 0-138 105-209 316-49 145-74 275-74 390 0 123 45 185 135 185 41 0 97-26 169-77s123-77 152-77" id="x"/><path fill="#fff" d="M828-1260c0-71 55-139 129-139 77 0 126 49 147 148 9 42 14 121 14 236C1118-316 948 34 609 34c-185 0-317-97-396-290-53-132-80-299-80-502 0-295 19-478 56-549 32-61 75-92 130-92 72 0 139 67 133 138-11 130-48 300-48 513 0 343 70 514 209 514 157 0 235-227 235-681 0-66-20-279-20-345" id="y"/><path fill="#fff" d="M1362-1399c70 0 140 64 135 134-12 173-175 531-253 756-28 81-67 203-118 364-37 119-91 179-162 179-57 0-104-28-128-89-49-125-43-185-88-392-24 87-55 195-93 324-30 99-53 167-155 167-51 0-89-25-114-75-12-24-28-70-40-138-37-208-205-888-242-1063-19-90 46-167 128-167 99 0 142 91 156 213 13 116 81 348 127 563 51-199 88-367 111-502 11-65 23-110 36-136 24-48 61-72 111-72 121 0 143 85 143 237 0 136 34 303 74 504l200-601c20-63 39-107 56-133 31-48 69-73 116-73" id="z"/><path fill="#fff" d="M340-1399c70 0 134 63 134 133 0 65-4 158-13 280 218-283 352-425 401-425 69 0 133 65 133 134 0 63-72 172-217 329S560-685 560-630c0 61 38 130 121 198 73 60 151 114 227 173 81 63 121 118 121 163 0 73-69 139-140 139-78 0-343-229-406-296-27-28-51-53-70-78-2 58-7 144-29 254C369-2 320 34 249 34c-75 0-130-66-130-138 0-132 56-638 60-719 3-65 7-162 7-291 0-90 18-150 27-181 19-69 62-104 127-104" id="A"/><g id="e"><use transform="matrix(0.01193576388888889,0,0,0.01193576388888889,0,0)" xlink:href="#x"/><use transform="matrix(0.01193576388888889,0,0,0.01193576388888889,12.25802951388889,0)" xlink:href="#w"/><use transform="matrix(0.01193576388888889,0,0,0.01193576388888889,27.798394097222218,0)" xlink:href="#y"/><use transform="matrix(0.01193576388888889,0,0,0.01193576388888889,42.765842013888886,0)" xlink:href="#u"/><use transform="matrix(0.01193576388888889,0,0,0.01193576388888889,56.563585069444436,0)" xlink:href="#h"/><use transform="matrix(0.01193576388888889,0,0,0.01193576388888889,70.33745659722223,0)" xlink:href="#m"/><use transform="matrix(0.01193576388888889,0,0,0.01193576388888889,83.76519097222223,0)" xlink:href="#z"/><use transform="matrix(0.01193576388888889,0,0,0.01193576388888889,101.87174479166667,0)" xlink:href="#w"/><use transform="matrix(0.01193576388888889,0,0,0.01193576388888889,117.41210937500001,0)" xlink:href="#u"/><use transform="matrix(0.01193576388888889,0,0,0.01193576388888889,131.73502604166669,0)" xlink:href="#A"/></g><g id="f"><use transform="matrix(0.01193576388888889,0,0,0.01193576388888889,0,0)" xlink:href="#o"/><use transform="matrix(0.01193576388888889,0,0,0.01193576388888889,14.40646701388889,0)" xlink:href="#w"/><use transform="matrix(0.01193576388888889,0,0,0.01193576388888889,29.946831597222218,0)" xlink:href="#l"/><use transform="matrix(0.01193576388888889,0,0,0.01193576388888889,48.459201388888886,0)" xlink:href="#m"/><use transform="matrix(0.01193576388888889,0,0,0.01193576388888889,61.886935763888886,0)" xlink:href="#z"/><use transform="matrix(0.01193576388888889,0,0,0.01193576388888889,79.99348958333333,0)" xlink:href="#w"/><use transform="matrix(0.01193576388888889,0,0,0.01193576388888889,95.53385416666666,0)" xlink:href="#u"/><use transform="matrix(0.01193576388888889,0,0,0.01193576388888889,109.85677083333331,0)" xlink:href="#A"/></g></defs></g></svg>